<?xml version="1.0"?>
<svg version="1.1" xmlns="http://www.w3.org/2000/svg" width="242" height="40" style=""><path fill="#0090f7" d="M15.908203125,21.6845703125l0-1.1279296875l0-1.1572265625q0.0146484375-1.171875,0.09521484375-2.24853515625t0.22705078125-1.79443359375q0.087890625-0.3955078125,0.52734375-0.4833984375t0.76171875-0.087890625q0.6005859375,0,0.88623046875,0.146484375t0.37353515625,0.41748046875t0.0732421875,0.64453125t-0.0146484375,0.85693359375q0,0.6884765625-0.029296875,1.9189453125t-0.0439453125,2.724609375l0,0.7470703125q0,1.1279296875,0.029296875,2.3291015625q0.0439453125,1.611328125,0.16845703125,3.08349609375t0.34423828125,2.6513671875t0.615234375,1.80908203125q0.6298828125-0.5712890625,1.259765625-1.60400390625t1.201171875-2.32177734375t1.09130859375-2.71728515625t0.94482421875-2.79052734375t0.72509765625-2.5634765625t0.44677734375-2.0361328125q0.234375-1.201171875,0.31494140625-2.4462890625t0.08056640625-2.7685546875q0.4541015625-0.5419921875,0.703125-0.68115234375t0.791015625-0.13916015625q0.263671875,0,0.53466796875,0.0439453125t0.52001953125,0.205078125l0.205078125,0.322265625l0,0.3662109375q0,2.666015625-0.25634765625,5.41259765625t-0.5419921875,5.5224609375t-0.5419921875,5.56640625t-0.25634765625,5.54443359375q0,0.4248046875,0.03662109375,0.90087890625t0.15380859375,0.90087890625l-0.05859375,0.17578125q-0.205078125,0.3369140625-0.673828125,0.4248046875t-0.8056640625,0.087890625q-0.7177734375,0-1.07666015625-0.21240234375t-0.47607421875-0.5859375t-0.1025390625-0.8642578125t0.0146484375-1.06201171875q0-1.9775390625,0.17578125-4.02099609375t0.4248046875-4.02099609375q-0.234375,0.6884765625-0.556640625,1.66259765625t-0.75439453125,1.9482421875t-1.00341796875,1.787109375t-1.259765625,1.16455078125l0.029296875-0.029296875l-0.1171875,0.05859375l0.029296875,0q-0.4248046875,0.234375-0.78369140625,0.31494140625t-0.84228515625,0.08056640625q-0.966796875,0-1.60400390625-0.5712890625t-1.03271484375-1.47216796875t-0.5859375-2.021484375t-0.27099609375-2.24853515625t-0.08056640625-2.14599609375l0-1.67724609375q0-0.8056640625-0.0146484375-1.9189453125z M21.123046875,33.3447265625q0.029296875,0,0.029296875-0.029296875l0.029296875,0q-0.029296875,0.029296875-0.05859375,0.029296875z M31.738330078125,24.2333984375q0-0.6884765625,0.27099609375-1.01806640625t0.98876953125-0.32958984375q0.4248046875,0,0.79833984375,0.17578125t0.37353515625,0.7470703125q0.05859375,0.8349609375,0.05859375,1.75048828125t0.1611328125,1.73583984375q0.3662109375-0.6005859375,0.82763671875-1.201171875t1.01806640625-1.0693359375t1.2158203125-0.75439453125t1.435546875-0.28564453125q1.0546875,0,1.787109375,0.439453125t1.20849609375,1.142578125t0.6884765625,1.58935546875t0.21240234375,1.77978515625q0,1.376953125-0.41748046875,2.24853515625t-1.10595703125,1.36962890625t-1.56005859375,0.673828125t-1.75048828125,0.17578125q-0.7763671875,0-1.4501953125-0.30029296875t-0.9375-1.13525390625q0-0.234375,0.34423828125-0.29296875t0.49072265625-0.05859375q0.4833984375,0,0.7177734375,0.263671875q0.17578125,0.205078125,0.38818359375,0.41748046875t0.44677734375,0.21240234375q0.4541015625,0,0.9521484375-0.25634765625t0.91552734375-0.673828125t0.703125-0.98876953125t0.28564453125-1.171875q0-0.5126953125-0.087890625-1.2744140625t-0.30029296875-1.46484375t-0.5859375-1.2158203125t-0.94482421875-0.5126953125q-0.8642578125,0-1.56005859375,0.791015625t-1.1572265625,1.904296875t-0.7177734375,2.314453125t-0.25634765625,2.0068359375t0.1025390625,2.0361328125t0.21240234375,2.55615234375t0.21240234375,2.55615234375t0.1025390625,2.0361328125q0,0.205078125-0.16845703125,0.32958984375t-0.40283203125,0.19775390625t-0.47607421875,0.087890625t-0.35888671875,0.0146484375q-0.3955078125,0-0.82763671875-0.087890625t-0.59326171875-0.5419921875q-0.205078125-0.7177734375-0.380859375-2.04345703125t-0.31494140625-2.9296875t-0.24169921875-3.369140625t-0.17578125-3.40576171875t-0.10986328125-3.0029296875t-0.03662109375-2.16796875z M44.88779296875,14.1552734375q0-0.205078125,0.28564453125-0.31494140625t0.37353515625-0.10986328125l0.5419921875-0.087890625q0.5419921875-0.087890625,1.0986328125-0.15380859375t1.083984375-0.12451171875q1.8603515625-0.234375,3.720703125-0.46142578125t3.75-0.22705078125q0.146484375,0,0.40283203125,0.0146484375t0.5126953125,0.08056640625t0.439453125,0.18310546875t0.18310546875,0.322265625q0,0.146484375-0.13916015625,0.25634765625t-0.32958984375,0.16845703125t-0.38818359375,0.0732421875t-0.31494140625,0.0146484375l-0.25634765625,0t-0.25634765625-0.05859375q-0.7763671875,0-1.53076171875,0.0732421875t-1.53076171875,0.1318359375q0.205078125,0.234375,0.2197265625,0.6591796875t0.029296875,0.732421875q0,5.185546875,0.0732421875,10.3125t0.1318359375,10.3564453125l0,0.029296875q-0.4833984375,0.4248046875-0.82763671875,0.5419921875t-0.69580078125,0.1171875q-0.3369140625,0-0.68115234375-0.12451171875t-0.82763671875-0.53466796875l0-0.029296875l0.1171875-11.4990234375q0-1.142578125-0.029296875-2.51953125t-0.029296875-2.79052734375t0.0439453125-2.73193359375t0.234375-2.2998046875q-0.8642578125,0.087890625-1.8310546875,0.263671875q-0.8349609375,0.146484375-1.5966796875,0.146484375l-0.263671875,0q-0.05859375,0-0.34423828125,0.0146484375t-0.5859375-0.0146484375t-0.5419921875-0.1171875t-0.24169921875-0.29296875z M59.077294921875,29.814453125q0-0.8349609375,0.21240234375-1.72119140625t0.673828125-1.5966796875t1.16455078125-1.1572265625t1.69921875-0.44677734375q0.7470703125,0,1.57470703125,0.25634765625t1.51611328125,0.732421875t1.12060546875,1.16455078125t0.43212890625,1.5380859375q0,1.025390625-0.37353515625,1.9482421875t-1.04736328125,1.64794921875t-1.57470703125,1.142578125t-1.95556640625,0.41748046875q-0.8642578125,0-1.5087890625-0.31494140625t-1.07666015625-0.84228515625t-0.64453125-1.2451171875t-0.21240234375-1.5234375z M61.230615234375,29.78515625q0,0.263671875,0.08056640625,0.7763671875t0.24169921875,1.00341796875t0.41748046875,0.849609375t0.62255859375,0.32958984375q0.7763671875-0.087890625,1.28173828125-0.50537109375t0.8203125-1.01806640625t0.439453125-1.3037109375t0.12451171875-1.3330078125q0-0.8056640625-0.31494140625-1.34765625t-1.03271484375-0.87890625q0,0.029296875,0.029296875,0.029296875t0.029296875-0.029296875l-0.3662109375-0.087890625q-0.146484375-0.05859375-0.35888671875-0.1318359375t-0.41748046875-0.322265625q-0.5712890625,0.205078125-0.88623046875,0.52734375t-0.47607421875,0.78369140625t-0.19775390625,1.10595703125t-0.03662109375,1.552734375z M70.2052734375,30.7080078125q0-0.5419921875,0.02197265625-1.58935546875t0.15380859375-2.13134765625t0.43212890625-1.962890625t0.90087890625-1.1279296875q0.146484375-0.05859375,0.47607421875-0.1025390625t0.6591796875-0.029296875t0.5859375,0.1171875t0.25634765625,0.380859375q0,0.05859375-0.05859375,0.1611328125t-0.3076171875,0.322265625q-0.4541015625,1.259765625-0.556640625,2.5048828125t-0.1025390625,2.5634765625q0,0.7763671875,0.05126953125,1.552734375t0.16845703125,1.5673828125q0.234375-0.3369140625,0.47607421875-1.0107421875t0.5126953125-1.47216796875t0.556640625-1.61865234375t0.64453125-1.494140625t0.791015625-1.11328125t0.97412109375-0.439453125q0.6005859375,0,1.00341796875,0.75439453125t0.7470703125,1.7431640625t0.64453125,2.0068359375t0.72509765625,1.56005859375q0.205078125-0.205078125,0.32958984375-0.53466796875t0.19775390625-0.71044921875t0.087890625-0.75439453125t0.0146484375-0.63720703125q0-0.6591796875-0.19775390625-1.42822265625t-0.41748046875-1.44287109375t-0.41748046875-1.13525390625t-0.19775390625-0.53466796875q0-0.1171875,0.12451171875-0.1904296875t0.28564453125-0.1171875t0.32958984375-0.05859375t0.25634765625-0.0146484375q0.5419921875,0,0.93017578125,0.6005859375t0.615234375,1.3916015625t0.32958984375,1.60400390625t0.1025390625,1.26708984375q0,0.5712890625-0.087890625,1.2158203125t-0.32958984375,1.19384765625t-0.71044921875,0.91552734375t-1.1865234375,0.3662109375q-0.8642578125,0-1.4208984375-0.4833984375t-0.90087890625-1.171875t-0.5419921875-1.50146484375t-0.37353515625-1.47216796875q-0.3369140625,0.7763671875-0.615234375,1.962890625t-0.703125,2.3291015625t-1.083984375,1.9482421875t-1.7138671875,0.8056640625t-1.50146484375-0.52001953125t-0.71044921875-1.42822265625l0.029296875,0.029296875q-0.17578125-0.6591796875-0.22705078125-1.318359375t-0.05126953125-1.318359375z M85.346923828125,29.609375l0-0.4248046875q0-0.52734375,0.029296875-0.99609375q0.029296875-0.6591796875,0.029296875-1.083984375q0-0.234375,0.029296875-0.53466796875t0.146484375-0.47607421875q0.146484375-0.146484375,0.34423828125-0.30029296875t0.43212890625-0.15380859375q0.7470703125,0,1.171875,0.16845703125t0.4541015625,0.69580078125l0.05859375,0.4541015625q0.263671875-0.6298828125,0.703125-1.56005859375t1.01806640625-1.7724609375t1.3037109375-1.435546875t1.53076171875-0.59326171875q0.7470703125,0,1.23046875,0.703125t0.76904296875,1.79443359375t0.40283203125,2.431640625t0.1611328125,2.62939453125t0.05859375,2.35107421875t0.1025390625,1.60400390625q0.05859375,0.4541015625,0.19775390625,0.95947265625t0.13916015625,0.93017578125q0,0.1171875-0.16845703125,0.22705078125t-0.35888671875,0.18310546875t-0.38818359375,0.1171875t-0.28564453125,0.0439453125q-0.5712890625,0-0.81298828125-0.85693359375t-0.30029296875-2.14599609375t-0.05859375-2.79052734375t-0.1025390625-2.79052734375t-0.41748046875-2.14599609375t-1.00341796875-0.88623046875q-0.6298828125,0-1.3037109375,0.81298828125t-1.1572265625,2.16064453125q-0.46875,1.34765625-0.64453125,3.0615234375q-0.05859375,0.5419921875-0.05859375,1.083984375q0,1.1865234375,0.2490234375,2.373046875q0.029296875,0.205078125-0.16845703125,0.3076171875t-0.49072265625,0.1611328125t-0.59326171875,0.0732421875t-0.46142578125,0.0146484375q-0.5712890625,0-0.91552734375-0.40283203125t-0.53466796875-1.03271484375t-0.25634765625-1.41357421875t-0.08056640625-1.54541015625z M104.36557617188,30.3271484375q0-3.1787109375,0.28564453125-6.36474609375t1.19384765625-6.27685546875q0.263671875-0.9228515625,0.6884765625-1.82373046875t1.0400390625-1.60400390625t1.46484375-1.142578125t2.021484375-0.439453125l0.3076171875,0.029296875q1.259765625,0.17578125,1.8603515625,1.01806640625t0.6005859375,2.10205078125q0,0.3369140625-0.08056640625,0.84228515625t-0.25634765625,0.97412109375t-0.47607421875,0.79833984375t-0.75439453125,0.32958984375q-0.205078125-0.029296875-0.37353515625-0.0732421875t-0.31494140625-0.1904296875q0.234375-0.5126953125,0.41748046875-1.0693359375t0.18310546875-1.2744140625q0-0.263671875-0.0439453125-0.673828125t-0.16845703125-0.81298828125t-0.32958984375-0.703125t-0.5712890625-0.30029296875q-0.9228515625,0-1.552734375,1.03271484375t-1.0546875,2.63671875t-0.6298828125,3.544921875t-0.31494140625,3.75t-0.12451171875,3.2666015625t-0.0146484375,2.05810546875q0,0.703125-0.0146484375,1.552734375l0,0.1904296875q0.0146484375,0.7470703125,0.1025390625,1.4208984375q0.1171875,0.76171875,0.4541015625,1.318359375t1.0546875,0.64453125q0.2197265625,0.029296875,0.4248046875,0.029296875q0.849609375,0,1.5380859375-0.4833984375q0.849609375-0.6005859375,1.5087890625-1.56005859375t1.171875-2.109375t0.94482421875-2.17529296875t0.84228515625-1.69921875t0.849609375-0.673828125q0.146484375,0,0.439453125,0.05859375t0.29296875,0.2783203125q0,0.05859375-0.029296875,0.1611328125t-0.0732421875,0.1611328125q-0.3955078125,1.552734375-1.00341796875,3.22265625t-1.552734375,3.03955078125t-2.314453125,2.23388671875t-3.28857421875,0.8642578125q-1.376953125,0-2.23388671875-0.52001953125t-1.318359375-1.3916015625t-0.6298828125-1.97021484375t-0.16845703125-2.2265625z M119.6830078125,29.814453125q0-0.8349609375,0.21240234375-1.72119140625t0.673828125-1.5966796875t1.16455078125-1.1572265625t1.69921875-0.44677734375q0.7470703125,0,1.57470703125,0.25634765625t1.51611328125,0.732421875t1.12060546875,1.16455078125t0.43212890625,1.5380859375q0,1.025390625-0.37353515625,1.9482421875t-1.04736328125,1.64794921875t-1.57470703125,1.142578125t-1.95556640625,0.41748046875q-0.8642578125,0-1.5087890625-0.31494140625t-1.07666015625-0.84228515625t-0.64453125-1.2451171875t-0.21240234375-1.5234375z M121.836328125,29.78515625q0,0.263671875,0.08056640625,0.7763671875t0.24169921875,1.00341796875t0.41748046875,0.849609375t0.62255859375,0.32958984375q0.7763671875-0.087890625,1.28173828125-0.50537109375t0.8203125-1.01806640625t0.439453125-1.3037109375t0.12451171875-1.3330078125q0-0.8056640625-0.31494140625-1.34765625t-1.03271484375-0.87890625q0,0.029296875,0.029296875,0.029296875t0.029296875-0.029296875l-0.3662109375-0.087890625q-0.146484375-0.05859375-0.35888671875-0.1318359375t-0.41748046875-0.322265625q-0.5712890625,0.205078125-0.88623046875,0.52734375t-0.47607421875,0.78369140625t-0.19775390625,1.10595703125t-0.03662109375,1.552734375z M130.79633789063,29.609375l0-0.4248046875q0-0.52734375,0.029296875-0.99609375q0.029296875-0.6591796875,0.029296875-1.083984375q0-0.234375,0.029296875-0.53466796875t0.146484375-0.47607421875q0.146484375-0.146484375,0.34423828125-0.30029296875t0.43212890625-0.15380859375q0.7470703125,0,1.171875,0.16845703125t0.4541015625,0.69580078125l0.05859375,0.4541015625q0.263671875-0.6298828125,0.703125-1.56005859375t1.01806640625-1.7724609375t1.3037109375-1.435546875t1.53076171875-0.59326171875q0.7470703125,0,1.23046875,0.703125t0.76904296875,1.79443359375t0.40283203125,2.431640625t0.1611328125,2.62939453125t0.05859375,2.35107421875t0.1025390625,1.60400390625q0.05859375,0.4541015625,0.19775390625,0.95947265625t0.13916015625,0.93017578125q0,0.1171875-0.16845703125,0.22705078125t-0.35888671875,0.18310546875t-0.38818359375,0.1171875t-0.28564453125,0.0439453125q-0.5712890625,0-0.81298828125-0.85693359375t-0.30029296875-2.14599609375t-0.05859375-2.79052734375t-0.1025390625-2.79052734375t-0.41748046875-2.14599609375t-1.00341796875-0.88623046875q-0.6298828125,0-1.3037109375,0.81298828125t-1.1572265625,2.16064453125q-0.46875,1.34765625-0.64453125,3.0615234375q-0.05859375,0.5419921875-0.05859375,1.083984375q0,1.1865234375,0.2490234375,2.373046875q0.029296875,0.205078125-0.16845703125,0.3076171875t-0.49072265625,0.1611328125t-0.59326171875,0.0732421875t-0.46142578125,0.0146484375q-0.5712890625,0-0.91552734375-0.40283203125t-0.53466796875-1.03271484375t-0.25634765625-1.41357421875t-0.08056640625-1.54541015625z M144.10693359375,25.7568359375q0-0.6005859375,0.3515625-1.03271484375t0.85693359375-0.703125t1.10595703125-0.40283203125t1.11328125-0.1318359375q0.3955078125,0,1.0546875,0.1171875t1.2890625,0.3515625t1.09130859375,0.615234375t0.46142578125,0.8935546875q0,0.234375-0.17578125,0.41748046875t-0.3662109375,0.18310546875q-0.3955078125,0-0.7177734375-0.25634765625t-0.66650390625-0.5419921875t-0.75439453125-0.5419921875t-0.9228515625-0.25634765625t-0.93017578125,0.32958984375t-0.41748046875,0.87158203125q0,0.8935546875,0.6298828125,1.75048828125t1.38427734375,1.8017578125t1.38427734375,1.98486328125t0.6298828125,2.2998046875q0,0.5419921875-0.22705078125,0.91552734375t-0.6005859375,0.60791015625t-0.84228515625,0.35888671875t-0.908203125,0.12451171875q-0.4833984375,0-1.1279296875-0.22705078125t-1.2158203125-0.6005859375t-0.95947265625-0.87158203125t-0.38818359375-1.0400390625q0-0.263671875,0.37353515625-0.3369140625t0.54931640625-0.0732421875q0.087890625,0,0.27099609375,0.05859375t0.35888671875,0.1318359375t0.31494140625,0.1611328125t0.10986328125,0.1904296875q0.146484375,0.17578125,0.44677734375,0.52001953125t0.6005859375,0.556640625t0.52734375,0.15380859375t0.22705078125-0.6591796875q0-1.142578125-0.615234375-2.10205078125t-1.34033203125-1.875t-1.34033203125-1.81640625t-0.615234375-1.92626953125z M153.82866210937,20.234375q0-0.205078125,0.439453125-0.3515625t0.99609375-0.24169921875t1.07666015625-0.13916015625t0.71044921875-0.0732421875q0-0.3955078125,0.029296875-0.79833984375t0.1611328125-0.7177734375t0.41748046875-0.50537109375t0.79833984375-0.1904296875q0.4248046875,0,0.64453125,0.1025390625t0.46875,0.4248046875q0.05859375,0.17578125,0.05859375,0.3369140625l0,0.49072265625t-0.029296875,0.50537109375q0.5419921875-0.05859375,1.07666015625-0.13916015625t1.07666015625-0.08056640625q0.3955078125,0,0.5419921875,0.0146484375t0.29296875,0.3515625q0.1171875,0.3369140625-0.28564453125,0.5126953125t-0.966796875,0.263671875t-1.12060546875,0.1318359375t-0.673828125,0.0439453125q-0.17578125,2.51953125-0.35888671875,4.9951171875t-0.18310546875,5.0244140625q0,1.142578125,0.0732421875,2.3583984375t0.41015625,2.2998046875q0.087890625,0.3369140625,0.29296875,0.6298828125t0.205078125,0.6298828125q0,0.205078125-0.1611328125,0.322265625t-0.38818359375,0.19775390625t-0.4541015625,0.09521484375t-0.37353515625,0.0146484375q-0.9228515625,0-1.40625-0.6884765625t-0.69580078125-1.64794921875t-0.22705078125-1.97021484375t-0.0146484375-1.640625q0-1.2890625,0.05126953125-2.63671875t0.12451171875-2.666015625t0.205078125-2.578125t0.3076171875-2.34375q-0.5126953125,0.05859375-1.00341796875,0.1318359375t-1.00341796875,0.0732421875q-0.1171875,0-0.31494140625-0.0146484375t-0.37353515625-0.0732421875t-0.30029296875-0.1611328125t-0.12451171875-0.29296875z M165.0298828125,25.4345703125q0-0.6005859375,0.21240234375-1.0107421875t0.90087890625-0.41015625q0.263671875,0,0.6591796875,0.08056640625t0.4541015625,0.40283203125q0.146484375,0.8642578125,0.1611328125,1.875t0.1025390625,1.904296875q0.3369140625-0.6591796875,0.8642578125-1.4208984375t1.201171875-1.40625t1.46484375-1.0693359375t1.611328125-0.4248046875q0.05859375,0,0.2197265625,0.0439453125t0.30029296875,0.12451171875t0.16845703125,0.18310546875t-0.1611328125,0.1904296875q-0.05859375,0.17578125-0.2490234375,0.21240234375t-0.3369140625,0.03662109375q-0.087890625,0-0.2783203125-0.0732421875q-1.083984375,0.5712890625-1.845703125,1.552734375t-1.2451171875,2.17529296875t-0.703125,2.51953125t-0.2197265625,2.58544921875q0,0.6298828125-0.28564453125,0.76171875t-0.91552734375,0.1318359375q-0.3369140625,0-0.71044921875-0.0732421875t-0.52001953125-0.46875q-0.263671875-0.8349609375-0.43212890625-1.9189453125t-0.25634765625-2.23388671875t-0.12451171875-2.26318359375t-0.03662109375-2.0068359375z M174.83950195312,28.2470703125q0-0.29296875,0.06591796875-0.7763671875t0.15380859375-0.95947265625t0.205078125-0.88623046875t0.2783203125-0.52734375q0.1171875-0.1171875,0.40283203125-0.234375t0.6005859375-0.16845703125t0.5859375,0.0439453125t0.32958984375,0.38818359375q-0.205078125,0.263671875-0.37353515625,0.90087890625t-0.25634765625,1.41357421875q-0.0732421875,0.6591796875-0.0732421875,1.3623046875l0,0.2490234375q0.0146484375,0.8203125,0.146484375,1.5087890625t0.40283203125,1.13525390625t0.75439453125,0.44677734375q1.025390625,0,1.875-0.94482421875t1.5087890625-2.30712890625t1.1572265625-2.89306640625t0.849609375-2.67333984375q0.087890625-0.3369140625,0.41748046875-0.4541015625t0.71044921875-0.08056640625t0.68115234375,0.18310546875t0.35888671875,0.3515625q-0.29296875,2.4609375-0.46142578125,4.921875t-0.16845703125,4.951171875q0,0.4833984375,0.0439453125,0.88623046875t-0.0439453125,0.6884765625t-0.38818359375,0.4541015625t-0.95947265625,0.16845703125q-0.146484375,0-0.37353515625-0.029296875t-0.46875-0.09521484375t-0.41015625-0.19775390625t-0.16845703125-0.3076171875q0-1.083984375,0.08056640625-2.2265625t0.22705078125-2.2119140625q-0.3955078125,0.5712890625-0.87158203125,1.13525390625t-1.04736328125,1.01806640625t-1.23046875,0.72509765625t-1.4208984375,0.27099609375q-1.083984375,0-1.70654296875-0.5126953125t-0.9375-1.28173828125t-0.3955078125-1.67724609375t-0.08056640625-1.7578125z M188.61884765625,29.2431640625q0-1.0546875,0.27099609375-2.11669921875t0.84228515625-1.904296875t1.45751953125-1.36962890625t2.08740234375-0.52734375q0.5126953125,0,1.1279296875,0.12451171875t1.13525390625,0.3955078125t0.87890625,0.703125t0.35888671875,1.06201171875q0,0.3955078125-0.205078125,0.52734375t-0.5419921875,0.1318359375l-0.1025390625-0.146484375t-0.28564453125-0.37353515625t-0.38818359375-0.4833984375t-0.3955078125-0.43212890625q-0.6005859375-0.6005859375-1.1279296875-0.64453125l-0.1171875,0q-0.439453125,0-0.8203125,0.263671875q-0.4248046875,0.322265625-0.75439453125,0.908203125t-0.54931640625,1.2451171875t-0.34423828125,1.3330078125t-0.12451171875,1.11328125q0,0.6005859375,0.13916015625,1.36962890625t0.46875,1.45751953125t0.8349609375,1.1572265625t1.29638671875,0.46875q0.7177734375,0,1.3037109375-0.3515625t1.12060546875-0.78369140625t1.04736328125-0.7763671875t1.0546875-0.34423828125q0.234375,0,0.47607421875,0.05859375t0.24169921875,0.3076171875l0,0.087890625q-0.263671875,0.6884765625-0.8935546875,1.2158203125t-1.41357421875,0.91552734375t-1.6259765625,0.57861328125t-1.50146484375,0.1904296875q-1.23046875,0-2.16064453125-0.40283203125t-1.54541015625-1.10595703125t-0.93017578125-1.69189453125t-0.31494140625-2.16064453125z M200.80151367187,20.234375q0-0.205078125,0.439453125-0.3515625t0.99609375-0.24169921875t1.07666015625-0.13916015625t0.71044921875-0.0732421875q0-0.3955078125,0.029296875-0.79833984375t0.1611328125-0.7177734375t0.41748046875-0.50537109375t0.79833984375-0.1904296875q0.4248046875,0,0.64453125,0.1025390625t0.46875,0.4248046875q0.05859375,0.17578125,0.05859375,0.3369140625l0,0.49072265625t-0.029296875,0.50537109375q0.5419921875-0.05859375,1.07666015625-0.13916015625t1.07666015625-0.08056640625q0.3955078125,0,0.5419921875,0.0146484375t0.29296875,0.3515625q0.1171875,0.3369140625-0.28564453125,0.5126953125t-0.966796875,0.263671875t-1.12060546875,0.1318359375t-0.673828125,0.0439453125q-0.17578125,2.51953125-0.35888671875,4.9951171875t-0.18310546875,5.0244140625q0,1.142578125,0.0732421875,2.3583984375t0.41015625,2.2998046875q0.087890625,0.3369140625,0.29296875,0.6298828125t0.205078125,0.6298828125q0,0.205078125-0.1611328125,0.322265625t-0.38818359375,0.19775390625t-0.4541015625,0.09521484375t-0.37353515625,0.0146484375q-0.9228515625,0-1.40625-0.6884765625t-0.69580078125-1.64794921875t-0.22705078125-1.97021484375t-0.0146484375-1.640625q0-1.2890625,0.05126953125-2.63671875t0.12451171875-2.666015625t0.205078125-2.578125t0.3076171875-2.34375q-0.5126953125,0.05859375-1.00341796875,0.1318359375t-1.00341796875,0.0732421875q-0.1171875,0-0.31494140625-0.0146484375t-0.37353515625-0.0732421875t-0.30029296875-0.1611328125t-0.12451171875-0.29296875z M212.002734375,29.1845703125q0-1.34765625,0.31494140625-2.64404296875t0.53466796875-2.58544921875q0.05859375-0.3369140625,0.46142578125-0.41748046875t0.68115234375-0.08056640625q0.4833984375,0,0.7763671875,0.146484375q0.1171875,0.05859375,0.2197265625,0.1318359375t0.1025390625,0.1904296875q0,1.259765625-0.30029296875,2.4609375t-0.30029296875,2.548828125q0,0.4541015625,0.06591796875,0.85693359375t0.12451171875,0.79833984375l0.087890625,0.4248046875q0,0.1171875,0.0146484375,0.205078125t0.0439453125,0.205078125q0,0.263671875-0.37353515625,0.35888671875t-0.65185546875,0.09521484375q-0.4248046875,0-0.78369140625-0.16845703125t-0.56396484375-0.57861328125l-0.205078125-0.4248046875q-0.17578125-0.3369140625-0.17578125-0.75439453125t-0.0732421875-0.76904296875z M212.940234375,20.3662109375l0-0.2783203125q0-0.6884765625,0.34423828125-1.23046875t1.03271484375-0.5419921875q0.087890625,0,0.16845703125,0.0146484375t0.16845703125,0.0146484375q0.17578125,0.029296875,0.46142578125,0.13916015625t0.28564453125,0.34423828125l0,0.029296875q-0.05859375,0.1171875-0.0732421875,0.24169921875t-0.0732421875,0.21240234375l0.029296875-0.029296875q-0.17578125,0.4541015625-0.28564453125,0.732421875t-0.24169921875,0.44677734375t-0.32958984375,0.24169921875t-0.56396484375,0.0732421875q-0.05859375,0-0.205078125-0.0146484375t-0.31494140625-0.05859375t-0.28564453125-0.1171875t-0.1171875-0.2197265625z M218.10629882812,29.814453125q0-0.8349609375,0.21240234375-1.72119140625t0.673828125-1.5966796875t1.16455078125-1.1572265625t1.69921875-0.44677734375q0.7470703125,0,1.57470703125,0.25634765625t1.51611328125,0.732421875t1.12060546875,1.16455078125t0.43212890625,1.5380859375q0,1.025390625-0.37353515625,1.9482421875t-1.04736328125,1.64794921875t-1.57470703125,1.142578125t-1.95556640625,0.41748046875q-0.8642578125,0-1.5087890625-0.31494140625t-1.07666015625-0.84228515625t-0.64453125-1.2451171875t-0.21240234375-1.5234375z M220.25961914062,29.78515625q0,0.263671875,0.08056640625,0.7763671875t0.24169921875,1.00341796875t0.41748046875,0.849609375t0.62255859375,0.32958984375q0.7763671875-0.087890625,1.28173828125-0.50537109375t0.8203125-1.01806640625t0.439453125-1.3037109375t0.12451171875-1.3330078125q0-0.8056640625-0.31494140625-1.34765625t-1.03271484375-0.87890625q0,0.029296875,0.029296875,0.029296875t0.029296875-0.029296875l-0.3662109375-0.087890625q-0.146484375-0.05859375-0.35888671875-0.1318359375t-0.41748046875-0.322265625q-0.5712890625,0.205078125-0.88623046875,0.52734375t-0.47607421875,0.78369140625t-0.19775390625,1.10595703125t-0.03662109375,1.552734375z M229.21962890625,29.609375l0-0.4248046875q0-0.52734375,0.029296875-0.99609375q0.029296875-0.6591796875,0.029296875-1.083984375q0-0.234375,0.029296875-0.53466796875t0.146484375-0.47607421875q0.146484375-0.146484375,0.34423828125-0.30029296875t0.43212890625-0.15380859375q0.7470703125,0,1.171875,0.16845703125t0.4541015625,0.69580078125l0.05859375,0.4541015625q0.263671875-0.6298828125,0.703125-1.56005859375t1.01806640625-1.7724609375t1.3037109375-1.435546875t1.53076171875-0.59326171875q0.7470703125,0,1.23046875,0.703125t0.76904296875,1.79443359375t0.40283203125,2.431640625t0.1611328125,2.62939453125t0.05859375,2.35107421875t0.1025390625,1.60400390625q0.05859375,0.4541015625,0.19775390625,0.95947265625t0.13916015625,0.93017578125q0,0.1171875-0.16845703125,0.22705078125t-0.35888671875,0.18310546875t-0.38818359375,0.1171875t-0.28564453125,0.0439453125q-0.5712890625,0-0.81298828125-0.85693359375t-0.30029296875-2.14599609375t-0.05859375-2.79052734375t-0.1025390625-2.79052734375t-0.41748046875-2.14599609375t-1.00341796875-0.88623046875q-0.6298828125,0-1.3037109375,0.81298828125t-1.1572265625,2.16064453125q-0.46875,1.34765625-0.64453125,3.0615234375q-0.05859375,0.5419921875-0.05859375,1.083984375q0,1.1865234375,0.2490234375,2.373046875q0.029296875,0.205078125-0.16845703125,0.3076171875t-0.49072265625,0.1611328125t-0.59326171875,0.0732421875t-0.46142578125,0.0146484375q-0.5712890625,0-0.91552734375-0.40283203125t-0.53466796875-1.03271484375t-0.25634765625-1.41357421875t-0.08056640625-1.54541015625z"/><path fill="#" d=""/></svg>
